# xmcd
#
# Track frame offsets:
#	150
#	27854
#	81700
#	110770
#	143437
#	199479
#	263724
#
# Disc length: 3932 seconds
#
# Revision: 1
# Processed by: cddbd v1.5.2PL0 Copyright (c) Steve Scherf et al.
# Submitted via: audiograbber 1.83.01
#
DISCID=630f5a07
DTITLE=Grateful Dead - 86-12-31 Henry J Kaiser Convention Centre, Oakland CA
DYEAR=1900
DGENRE=
TTITLE0=Touch Of Grey
TTITLE1=Let It Grow
TTITLE2=Black Muddy River
TTITLE3=Samson and Delilah
TTITLE4=Terrapin Station
TTITLE5=Drums
TTITLE6=Space
EXTD=
EXTT0=
EXTT1=
EXTT2=
EXTT3=
EXTT4=
EXTT5=
EXTT6=
PLAYORDER=
